<svg version="1.2" xmlns="http://www.w3.org/2000/svg" viewBox="0 0 32 33" width="32" height="33"><defs><clipPath clipPathUnits="userSpaceOnUse" id="cp1"><path d="m-232-808h1920v3750h-1920z"/></clipPath></defs><style>.A{fill:#122844}</style><g clip-path="url(#cp1)"><path class="A" d="m30.2 21v0.4c0 2-0.8 3.9-2.3 5.4c-1.1 1-2.3 1.7-3.7 2l1.8 1.9c0.4 0.3 0.4 0.8 0 1.1q-0.2 0.2-0.5 0.2q-0.3 0-0.6-0.2l-2.8-2.8h-12.2l-2.8 2.8q-0.2 0.2-0.5 0.2q-0.3 0-0.6-0.2c-0.3-0.3-0.3-0.8 0-1.1l1.9-1.9c-1.4-0.3-2.7-1-3.8-2c-1.5-1.5-2.3-3.4-2.3-5.4v-0.4c0-0.4 0.4-0.8 0.8-0.8c0.5 0 0.8 0.4 0.8 0.8v0.4c0 1.6 0.7 3.1 1.8 4.3c1.2 1.1 2.8 1.8 4.4 1.8h12.8c1.6 0 3.2-0.7 4.4-1.8c1.1-1.2 1.8-2.7 1.8-4.3v-0.4c0-0.4 0.3-0.8 0.8-0.8c0.4 0 0.8 0.4 0.8 0.8z"/><path class="A" d="m4.6 22c0-0.4 0.4-0.8 0.8-0.8c0.5 0 0.8 0.4 0.8 0.8c0 1.7 1.4 3.1 3.1 3.1h0.2c0.5 0 0.8 0.3 0.8 0.8c0 0.4-0.3 0.7-0.8 0.7h-0.2c-2.6 0-4.7-2-4.7-4.6z"/><path class="A" d="m13.6 10.2c0.8-0.8 2.1-0.8 2.8 0c0.8 0.7 0.8 2 0 2.8c-0.7 0.8-2 0.8-2.8 0c-0.8-0.8-0.8-2.1 0-2.8z"/><ellipse class="A" cx="18.5" cy="8.1" rx="1.1" ry="1.1"/><path class="A" d="m20.3 10.8c0.4-0.1 0.9 0.2 1 0.6c0.1 0.5-0.2 0.9-0.6 1.1c-0.5 0.1-1-0.2-1.1-0.7c-0.1-0.4 0.2-0.9 0.7-1z"/><path fill-rule="evenodd" class="A" d="m32 17.3c0 1.1-0.9 2.1-2.1 2.1h-3.1v4.5c0 0.6-0.6 1.2-1.3 1.2h-6c-0.7 0-1.3-0.6-1.3-1.2v-4.5h-16.1c-1.2 0-2.1-1-2.1-2.1c0-1.2 1-2.1 2.2-2.1h1.9v-1.9h-1c-0.4 0-0.8-0.4-0.8-0.8c0-0.4 0.4-0.8 0.8-0.8h1v-8.2c0-1.9 1.6-3.5 3.5-3.5c1.6 0 3 1.1 3.4 2.6c1.6-0.3 3.2 0.4 4 1.8l0.4 0.8c0.2 0.4 0.1 0.9-0.3 1.1c-0.4 0.2-0.9 0-1.1-0.3l-0.1-0.2l-3.6 1.9l0.1 0.2c0.2 0.3 0 0.8-0.4 1q-0.1 0.1-0.3 0.1c-0.3 0-0.6-0.1-0.7-0.4l-0.5-0.8c-0.8-1.6-0.4-3.5 1-4.6c-0.1-0.9-0.9-1.6-1.9-1.6c-1.1 0-1.9 0.8-1.9 1.9v8.2h1c0.5 0 0.8 0.4 0.8 0.8c0 0.4-0.3 0.8-0.8 0.8h-1v1.9h12.5v-0.2c0-1.2 1-2.2 2.2-2.2h6.2c0.5 0 0.9 0.4 0.9 0.9v0.6c0 0.5 0.4 0.9 0.9 0.9h1.4c1.2 0 2.2 0.9 2.2 2.1zm-22.3-11l3.3-1.8c-0.6-0.5-1.5-0.6-2.2-0.2c-0.8 0.4-1.2 1.2-1.1 2zm8.5 10.5h-16.1c-0.3 0-0.5 0.2-0.5 0.5c0 0.3 0.2 0.5 0.5 0.5h16.1zm7-2.3h-4.8c-0.3 0-0.6 0.2-0.6 0.6v5.8h4.1c0.4 0 0.7 0.4 0.7 0.8c0 0.5-0.3 0.8-0.7 0.8h-4.1v1.1h5.4zm5.2 2.9c0-0.3-0.2-0.5-0.5-0.5h-3.1v1.1h3.1c0.3 0 0.5-0.3 0.5-0.6z"/></g></svg>