<svg version="1.2" xmlns="http://www.w3.org/2000/svg" viewBox="0 0 32 29" width="32" height="29"><defs><clipPath clipPathUnits="userSpaceOnUse" id="cp1"><path d="m-119-809h1920v3750h-1920z"/></clipPath></defs><style>.A{fill:#122844}</style><g clip-path="url(#cp1)"><path fill-rule="evenodd" class="A" d="m26 28.6c-0.5 0-0.9-0.4-0.9-0.8v-2.5h-18.2v2.5c0 0.4-0.4 0.8-0.9 0.8h-3.3c-0.5 0-0.9-0.4-0.9-0.8v-2.5h-0.9c-0.5 0-0.9-0.4-0.9-0.8v-7.9c0-1.5 0.7-2.9 1.8-3.8v-7c0-3.2 2.6-5.8 5.8-5.8h6c0.4 0 0.8 0.4 0.8 0.9c0 0.4-0.4 0.8-0.8 0.8h-6c-2.2 0-4 1.8-4 4.1v6.2q0.5-0.2 1.1-0.2v-3.3c0-1.4 1.2-2.6 2.6-2.6h6.9c0.7 0 1.3 0.2 1.8 0.7c0.5-0.5 1.1-0.7 1.8-0.7h6.9c1.4 0 2.6 1.2 2.6 2.6v3.3q0.6 0 1.1 0.2v-6.2c0-2.3-1.8-4.1-4-4.1h-5.8c-0.5 0-0.9-0.4-0.9-0.8c0-0.5 0.4-0.9 0.9-0.9h5.8c3.2 0 5.8 2.6 5.8 5.8v7c1.1 0.9 1.8 2.3 1.8 3.8v7.9c0 0.4-0.4 0.8-0.9 0.8h-0.9v2.5c0 0.4-0.4 0.8-0.9 0.8zm2.5-1.7v-1.6h-1.6v1.6zm-23.3 0v-1.6h-1.6v1.6zm0.9-3.3q0 0 0 0h19.9q0 0 0 0h3.3q0 0 0 0h1v-1.2h-24.4c-0.4 0-0.8-0.4-0.8-0.9c0-0.5 0.4-0.9 0.8-0.9h24.4v-4c0-1.7-1.4-3.1-3.1-3.1h-22.4c-1.7 0-3.1 1.4-3.1 3.1v7h1q0 0 0 0zm19.6-11.8v-3.3c0-0.5-0.4-0.9-0.9-0.9h-6.9c-0.5 0-0.9 0.4-0.9 0.9v3.3zm-10.5 0v-3.3c0-0.5-0.4-0.9-0.9-0.9h-6.9c-0.5 0-0.9 0.4-0.9 0.9v3.3z"/><path class="A" d="m16 1.7q-0.4 0-0.6-0.2q-0.3-0.3-0.3-0.6q0-0.4 0.3-0.6q0.2-0.3 0.6-0.3q0.4 0 0.6 0.3q0.3 0.2 0.3 0.6q0 0.3-0.3 0.6q-0.2 0.2-0.6 0.2z"/><path class="A" d="m3.5 22.4q-0.4 0-0.7-0.3q-0.2-0.2-0.2-0.6q0-0.3 0.2-0.6q0.3-0.3 0.7-0.3q0.3 0 0.6 0.3q0.2 0.3 0.2 0.6q0 0.4-0.2 0.6q-0.3 0.3-0.6 0.3z"/></g></svg>