<svg version="1.2" xmlns="http://www.w3.org/2000/svg" viewBox="0 0 275 80" width="275" height="80"><defs><clipPath clipPathUnits="userSpaceOnUse" id="cp1"><path d="m-50-20h1920v3750h-1920z"/></clipPath></defs><style>.A{fill:#fff}.B{fill:#f2be1a}</style><g clip-path="url(#cp1)"><path fill-rule="evenodd" class="A" d="m43.9 79.2v-9.8h1.3l-0.1 4.2h5.3v-4.1h1.3l-0.1 9.7h-1.2v-4.5h-5.3v4.5zm13.2-0.4q-1-0.6-1.5-1.7q-0.5-1.1-0.5-2.7q0-1.6 0.5-2.7q0.5-1.2 1.5-1.8q0.9-0.6 2.2-0.6q1.3 0.1 2.3 0.6q0.9 0.6 1.4 1.8q0.5 1.1 0.5 2.7q0 1.6-0.5 2.7q-0.5 1.1-1.4 1.7q-1 0.6-2.3 0.6q-1.3 0-2.2-0.6zm3.7-0.9q0.7-0.4 1-1.3q0.4-0.9 0.4-2.2q0-1.4-0.4-2.2q-0.3-0.9-0.9-1.3q-0.7-0.5-1.6-0.5q-0.9 0-1.5 0.5q-0.6 0.4-1 1.3q-0.3 0.8-0.3 2.2q0 1.3 0.3 2.2q0.3 0.9 1 1.3q0.6 0.4 1.5 0.4q0.9 0 1.5-0.4zm7.8 1.4l-2.8-9.8h1.3l2.1 7.8l2.2-7.8h1l2.2 7.8l2.2-7.8h1.2l-2.8 9.8h-1.2l-2.1-7.6l-2.2 7.6zm16.9 0v-9.7h3.8q1 0 1.7 0.3q0.7 0.3 1.1 0.9q0.3 0.6 0.3 1.4q0 0.8-0.3 1.4q-0.2 0.5-0.7 0.8q-0.4 0.3-0.9 0.5l1.9 4.4h-1.3l-1.8-4.2h-2.6v4.2zm5.1-5.7q0.6-0.4 0.6-1.3q0-0.9-0.5-1.3q-0.6-0.4-1.5-0.4h-2.4v3.5h2.1q1.1 0 1.7-0.5zm5.4 5.7v-9.7h6.2v1.1h-4.9v3.2h4.4v1.1h-4.5v3.2h5.1v1.2zm8.9 0l3.5-9.8h1.4l3.6 9.8h-1.3l-1-2.7h-4l-0.9 2.7zm4.2-8.5l-1.7 4.7h3.4zm7.4 8.5v-9.7h1.3v8.6h4.6v1.1zm13.6 0.1v-9.8h6.2l-0.1 1.1h-4.8l-0.1 3.2h4.5l-0.1 1.1h-4.4v3.2l5.1 0.1v1.1zm11.7 0q-0.6-0.2-1.2-0.5q-0.5-0.4-0.8-0.9q-0.4-0.5-0.5-1.2h1.3q0.2 0.6 0.5 0.9q0.4 0.4 0.9 0.6q0.5 0.2 1.1 0.2q0.7 0 1.3-0.2q0.5-0.2 0.8-0.5q0.4-0.4 0.4-0.9q0-0.4-0.2-0.7q-0.2-0.4-0.6-0.6q-0.4-0.2-0.9-0.3l-2-0.5q-1-0.2-1.6-0.8q-0.7-0.6-0.7-1.6q0-0.9 0.5-1.5q0.4-0.7 1.2-1q0.8-0.4 1.8-0.4q1.2 0 2 0.4q0.8 0.4 1.2 1.1q0.4 0.6 0.4 1.4h-1.3q-0.1-0.7-0.4-1.1q-0.3-0.4-0.8-0.5q-0.5-0.2-1.1-0.2q-0.4 0-0.8 0.1q-0.4 0.1-0.7 0.3q-0.3 0.2-0.5 0.5q-0.1 0.3-0.1 0.7q0 0.6 0.3 0.9q0.4 0.3 1.3 0.6l1.9 0.4q0.7 0.2 1.2 0.5q0.4 0.3 0.7 0.7q0.2 0.4 0.3 0.8q0.1 0.4 0.1 0.8q0 0.7-0.4 1.3q-0.5 0.6-1.3 1q-0.8 0.4-2 0.3q-0.6 0-1.3-0.1zm10.4 0l0.1-8.6h-3.2v-1.1h7.4v1.1h-3v8.6zm5.3 0.1l3.6-9.8h1.4l3.5 9.8h-1.3l-0.9-2.7h-4l-1 2.7zm4.3-8.6l-1.7 4.7h3.3zm8.6 8.6v-8.6h-3.2v-1.2h7.4v1.2h-3v8.6zm7.2 0v-9.7h6.2v1.1h-4.9v3.1l4.4 0.1v1h-4.4l-0.1 3.3h5.1v1.1zm15.5-0.4q-0.9-0.6-1.4-1.7q-0.5-1.1-0.5-2.7q0-1.6 0.5-2.7q0.6-1.1 1.5-1.7q0.9-0.6 2.2-0.6q0.8 0 1.4 0.2q0.7 0.3 1.2 0.7q0.5 0.5 0.8 1.1q0.3 0.5 0.3 1.1h-1.3q-0.1-0.5-0.5-1q-0.3-0.4-0.8-0.7q-0.5-0.3-1.1-0.3q-0.8 0-1.5 0.4q-0.6 0.4-1 1.3q-0.3 0.8-0.3 2.2q0 1 0.2 1.8q0.2 0.7 0.6 1.2q0.4 0.4 0.9 0.7q0.5 0.2 1.1 0.2q0.6 0 1.1-0.2q0.5-0.2 0.8-0.6q0.3-0.3 0.4-0.7q0.2-0.4 0.2-0.8l0.1-0.8h-2.4v-1h3.7l-0.1 5.1h-0.9v-1.5q-0.3 0.4-0.6 0.8q-0.4 0.4-1 0.6q-0.6 0.2-1.3 0.2q-1.3 0-2.3-0.6zm9.9 0.5v-9.8h6.2v1.1h-4.9v3.2h4.4v1.1h-4.4v3.3h5v1.1zm12.1 0l0.1-8.6h-3.2v-1.1h7.4v1.1h-3v8.6zm9.2 0q-0.7-0.1-1.2-0.5q-0.5-0.3-0.9-0.8q-0.3-0.6-0.4-1.2h1.3q0.1 0.5 0.5 0.9q0.4 0.4 0.9 0.6q0.5 0.2 1.1 0.2q0.7 0 1.2-0.2q0.6-0.2 0.9-0.6q0.3-0.3 0.3-0.8q0-0.5-0.2-0.8q-0.2-0.3-0.6-0.5q-0.3-0.3-0.9-0.4l-1.9-0.4q-1.1-0.3-1.7-0.9q-0.6-0.6-0.6-1.6q0-0.8 0.5-1.5q0.4-0.6 1.2-1q0.8-0.3 1.8-0.3q1.2 0 2 0.4q0.8 0.4 1.2 1q0.4 0.7 0.4 1.4h-1.3q-0.1-0.6-0.4-1q-0.3-0.4-0.8-0.6q-0.5-0.2-1.1-0.2q-0.4 0-0.8 0.1q-0.4 0.2-0.7 0.4q-0.3 0.2-0.5 0.5q-0.2 0.3-0.2 0.7q0 0.5 0.4 0.9q0.3 0.3 1.3 0.5l1.8 0.5q0.8 0.1 1.2 0.4q0.5 0.3 0.8 0.7q0.2 0.4 0.3 0.8q0.1 0.5 0.1 0.9q0 0.7-0.4 1.3q-0.5 0.6-1.3 1q-0.8 0.3-2 0.3q-0.7 0-1.3-0.2zm12.9 0.1v-9.8h3.8q1.1 0 1.8 0.4q0.7 0.3 1 0.9q0.4 0.6 0.4 1.4q0 0.8-0.3 1.3q-0.3 0.6-0.7 0.9q-0.4 0.3-0.9 0.5l1.9 4.4h-1.3l-1.8-4.2h-2.6v4.2zm5.1-5.7q0.6-0.4 0.6-1.3q0-0.9-0.6-1.3q-0.5-0.4-1.4-0.4h-2.5v3.5h2.1q1.1 0 1.8-0.5zm5.3 5.7l0.1-9.7h6.1v1.1h-4.9v3.2h4.4v1.1l-4.4-0.1v3.3h5v1.1zm8.9 0.1l3.6-9.8h1.4l3.5 9.8h-1.3l-0.9-2.7h-4l-1 2.7zm4.3-8.5l-1.7 4.7h3.3zm7.4 8.5l0.1-9.8h1.2v8.7h4.6v1.1z"/><path fill-rule="evenodd" class="B" d="m56.1 0.3l-18.7 33.9v45.5h-5.4v-45.5l18.7-33.9zm-11.2 0l-18.2 33.9v36.7h-5.4v-36.7l18.6-33.9zm-9.9 0l-19.5 33.9v26.4l-5.4-8.7v-17.7l19.5-33.9zm-11.2 0l-18.3 33.9v9.6l-5.4-9.6l18.3-33.9zm24 23.8l5.4 10.1h-5.4l-2.9-5.5zm5.4-9.2l10.4 19.2h-5.4l-7.5-15zm5.4-10l15.8 29.2h-5.4l-12.9-24.2z"/><path fill-rule="evenodd" class="A" d="m44 63v-21.8h5.4v2.8q0.5-0.7 1.1-1.3q0.6-0.5 1.4-1q0.7-0.4 1.6-0.6q0.9-0.3 1.9-0.3q2.1 0 3.8 1.1q1.7 1 2.6 3.2q1 2.2 1 5.6q0 3.5-1 5.7q-1.1 2.2-2.9 3.3q-1.8 1.1-4 1.1q-1 0-1.8-0.3q-0.8-0.2-1.5-0.7q-0.7-0.4-1.2-1q-0.6-0.6-1-1.3v5.5zm12.5-7.7q1.2-1.4 1.2-4.6q0-2.8-1.1-4.3q-1.1-1.6-3-1.6q-2.1 0-3.2 1.7q-1 1.7-1 4.2q0 1.6 0.5 3q0.4 1.4 1.3 2.3q1 0.8 2.4 0.8q1.7 0 2.9-1.5zm9.9 5.1v-19.2h5.2v4.6q0.5-1.5 1.3-2.6q0.9-1.1 2.1-1.7q1.2-0.7 2.7-0.7q0.3 0 0.5 0.1q0.2 0 0.4 0.1v5.1q-0.2-0.1-0.4-0.1q-0.3 0-0.5 0q-1.6-0.1-2.7 0.1q-1.1 0.2-1.8 0.7q-0.7 0.6-1.1 1.4q-0.3 0.7-0.3 1.7v10.5zm18.5-0.8q-2.1-1.2-3.3-3.4q-1.1-2.2-1.1-5.3q0-3 1.1-5.3q1.2-2.2 3.3-3.5q2.1-1.3 4.9-1.3q2.8 0 4.9 1.3q2.1 1.2 3.2 3.5q1.2 2.2 1.2 5.3q0 2.9-1.1 5.1q-1.2 2.3-3.2 3.5q-2.1 1.3-5 1.3q-2.8 0-4.9-1.2zm7.2-3.7q0.9-0.8 1.3-2.2q0.4-1.3 0.4-3q0-1.5-0.4-2.8q-0.4-1.4-1.2-2.2q-0.9-0.9-2.4-0.9q-1.4 0-2.3 0.8q-0.9 0.8-1.3 2.2q-0.4 1.3-0.4 2.9q0 1.5 0.4 2.9q0.3 1.4 1.2 2.3q0.9 0.9 2.4 0.9q1.4 0 2.3-0.9zm10.5 7.1v-21.8h5.5v2.8q0.4-0.7 1.1-1.3q0.6-0.5 1.3-1q0.8-0.4 1.7-0.6q0.9-0.3 1.9-0.3q2.1 0 3.8 1.1q1.6 1 2.6 3.2q1 2.2 1 5.6q0 3.5-1.1 5.7q-1 2.2-2.8 3.3q-1.8 1.1-4.1 1.1q-0.9 0-1.7-0.3q-0.8-0.2-1.5-0.7q-0.7-0.4-1.3-1q-0.5-0.6-0.9-1.3v5.5zm12.5-7.7q1.2-1.4 1.2-4.6q0-2.8-1.1-4.3q-1.2-1.6-3-1.6q-2.1 0-3.2 1.7q-1 1.7-1 4.2q0 1.6 0.4 3q0.5 1.4 1.4 2.3q0.9 0.8 2.4 0.8q1.7 0 2.9-1.5zm14.6 5.1q-1.3-0.5-2.3-1.3q-1-0.8-1.6-2q-0.6-1.2-0.6-2.8v-13.1h3.4v12.7q0 1.9 1.2 3q1.1 1.2 3.5 1.2q2.1 0 3.4-1.1q1.3-1.1 1.3-3.3v-12.5h3.4v19.2h-2.7l-0.4-3.7q-0.3 1.5-1.2 2.4q-0.8 0.9-2 1.3q-1.2 0.4-2.5 0.4q-1.5 0-2.9-0.4zm20.2-0.2q-1.8-0.7-2.9-2q-1.1-1.3-1.4-3.4h3.1q0.3 1.2 0.9 1.9q0.7 0.8 1.7 1.1q1 0.4 2.3 0.4q1.9 0 3.1-0.7q1.2-0.7 1.2-2.2q0-1.1-0.7-1.7q-0.6-0.7-1.9-1l-4-0.9q-2.3-0.6-3.7-1.8q-1.4-1.2-1.4-3.3q0-1.7 0.8-3q0.9-1.3 2.5-2q1.6-0.8 4.1-0.8q3.1 0 5 1.4q1.9 1.5 2 4.2h-3q-0.2-1.4-1.3-2.2q-1-0.8-2.8-0.8q-1.8 0-3 0.7q-1.1 0.7-1.1 2.3q0 1 0.8 1.6q0.8 0.6 2.4 1l3.9 0.9q1.3 0.4 2.2 1q0.8 0.5 1.3 1.2q0.5 0.7 0.8 1.5q0.2 0.8 0.2 1.5q0 1.8-0.9 3q-0.9 1.3-2.5 2q-1.7 0.7-4 0.7q-2 0-3.7-0.6zm19.2-0.6q-2.1-1.2-3.2-3.3q-1.2-2.2-1.2-5.3q0-3 1.1-5.3q1-2.3 3-3.6q2-1.3 4.8-1.3q2.7 0 4.5 1.2q1.9 1.2 2.9 3.3q1 2.1 1 5.1v1.2h-13.8q0 1.8 0.6 3.3q0.6 1.5 1.8 2.4q1.3 0.8 3.1 0.8q1.9 0 3.2-0.8q1.3-0.9 1.7-2.5h3.3q-0.4 2-1.6 3.3q-1.2 1.3-2.9 2q-1.7 0.7-3.6 0.7q-2.7 0-4.7-1.2zm9-13.3q-0.6-1.3-1.7-2.1q-1.1-0.8-2.9-0.8q-1.8 0-2.9 0.9q-1.2 0.9-1.8 2.2q-0.6 1.4-0.6 2.8h10.5q0-1.7-0.6-3zm8.6 14.1v-19.2h3.2v3.7q0.5-1.4 1.4-2.3q0.9-0.9 2-1.3q1.1-0.5 2.3-0.5q0.4 0 0.8 0.1q0.5 0.1 0.7 0.2v3.3q-0.3-0.1-0.7-0.2q-0.5 0-0.8 0q-1.1-0.1-2.1 0.1q-1 0.2-1.8 0.8q-0.8 0.5-1.2 1.3q-0.4 0.9-0.4 2.1v11.9zm17.5-0.2q-1.8-0.7-2.9-2q-1.1-1.3-1.4-3.4h3.1q0.3 1.2 0.9 1.9q0.7 0.8 1.7 1.1q1.1 0.4 2.3 0.4q1.9 0 3.1-0.7q1.2-0.7 1.2-2.2q0-1.1-0.7-1.7q-0.6-0.7-1.9-1l-4-0.9q-2.3-0.6-3.7-1.8q-1.4-1.2-1.4-3.3q0-1.7 0.8-3q0.9-1.3 2.5-2q1.6-0.8 4.1-0.8q3.1 0 5 1.4q1.9 1.5 2 4.2h-3q-0.2-1.4-1.3-2.2q-1-0.8-2.8-0.8q-1.8 0-3 0.7q-1.1 0.7-1.1 2.3q0 1 0.8 1.6q0.8 0.6 2.4 1l3.9 0.9q1.3 0.4 2.2 1q0.8 0.5 1.3 1.2q0.5 0.7 0.8 1.5q0.2 0.8 0.2 1.5q0 1.8-0.9 3q-0.9 1.3-2.5 2q-1.7 0.7-4 0.7q-2 0-3.7-0.6zm14.5 0.2v-3.2h3v3.2zm8.9-0.5q-1.5-0.9-2.3-2.5q-0.8-1.6-0.8-3.9q0-2.2 0.7-3.8q0.8-1.7 2.2-2.6q1.5-0.9 3.5-0.9q1.5 0 2.7 0.6q1.2 0.5 2 1.6q0.7 1 0.9 2.5h-2.2q-0.1-0.8-0.6-1.4q-0.4-0.6-1.1-0.9q-0.7-0.4-1.7-0.4q-1.8 0-2.9 1.3q-1.1 1.3-1.1 4q0 2.4 1 3.8q1 1.5 3.1 1.5q0.9 0 1.6-0.4q0.7-0.4 1.2-1q0.4-0.6 0.5-1.3h2.2q-0.2 1.4-0.9 2.4q-0.8 1.1-2 1.6q-1.2 0.6-2.7 0.6q-1.9 0-3.3-0.8zm14.5 0q-1.5-0.9-2.3-2.5q-0.8-1.6-0.8-3.9q0-2.2 0.8-3.8q0.7-1.7 2.2-2.6q1.4-0.9 3.5-0.9q1.9 0 3.3 0.8q1.4 0.9 2.2 2.5q0.8 1.6 0.8 4q0 2.1-0.7 3.7q-0.7 1.7-2.1 2.6q-1.5 0.9-3.5 0.9q-2 0-3.4-0.8zm5.5-1.8q0.8-0.7 1.3-1.8q0.4-1.2 0.4-2.9q0-1.5-0.4-2.7q-0.3-1.2-1.2-1.9q-0.9-0.7-2.2-0.7q-1.3 0-2.2 0.7q-0.9 0.6-1.3 1.8q-0.5 1.2-0.5 2.8q0 1.5 0.4 2.7q0.4 1.2 1.3 1.9q0.9 0.7 2.3 0.7q1.2 0 2.1-0.6zm7.5 2.3v-13.9h2.4v2q0.6-0.9 1.6-1.6q1-0.7 2.6-0.7q0.8 0 1.6 0.2q0.8 0.3 1.4 0.8q0.7 0.5 1 1.3q0.7-1.1 1.8-1.7q1.1-0.6 2.5-0.6q0.7 0 1.5 0.2q0.8 0.2 1.5 0.8q0.7 0.6 1.1 1.5q0.4 1 0.4 2.6v9.1h-2.5v-8.9q0-1.2-0.4-1.9q-0.4-0.7-1-1q-0.7-0.3-1.4-0.3q-0.7 0-1.4 0.3q-0.7 0.2-1.2 0.8q-0.6 0.6-0.6 1.7v9.3h-2.4v-9.6q0-0.8-0.5-1.4q-0.4-0.5-1.1-0.8q-0.6-0.3-1.3-0.3q-0.7 0-1.4 0.3q-0.7 0.3-1.2 0.9q-0.5 0.6-0.5 1.6v9.3z"/></g></svg>