<svg version="1.2" xmlns="http://www.w3.org/2000/svg" viewBox="0 0 12 18" width="12" height="18"><defs><clipPath clipPathUnits="userSpaceOnUse" id="cp1"><path d="m-101-705h1920v3750h-1920z"/></clipPath></defs><style>.A{fill:#122844}</style><g clip-path="url(#cp1)"><path class="A" d="m11.5 4.4v1.3q0 0.2-0.1 0.3q-0.2 0.1-0.3 0.1h-2.2q-0.3 1.8-1.6 3q-1.4 1.1-3.6 1.4q2.2 2.3 5.9 6.8q0.2 0.2 0.1 0.5q-0.1 0.2-0.4 0.2h-2.5q-0.2 0-0.3-0.2q-3.9-4.6-6.4-7.3q-0.1-0.1-0.1-0.2v-1.7q0-0.1 0.1-0.2q0.1-0.2 0.3-0.2h1.4q1.7 0 2.8-0.5q1-0.6 1.3-1.6h-5.5q-0.2 0-0.3-0.1q-0.1-0.1-0.1-0.3v-1.3q0-0.2 0.1-0.3q0.1-0.1 0.3-0.1h5.3q-0.7-1.5-3.4-1.5h-1.9q-0.2 0-0.3-0.1q-0.1-0.1-0.1-0.3v-1.7q0-0.2 0.1-0.3q0.1-0.1 0.3-0.1h10.6q0.2 0 0.3 0.1q0.2 0.1 0.2 0.3v1.3q0 0.2-0.2 0.3q-0.1 0.1-0.3 0.1h-2.9q0.6 0.8 0.8 1.9h2.2q0.1 0 0.3 0.1q0.1 0.1 0.1 0.3z"/></g></svg>