<svg version="1.2" xmlns="http://www.w3.org/2000/svg" viewBox="0 0 32 32" width="32" height="32"><defs><clipPath clipPathUnits="userSpaceOnUse" id="cp1"><path d="m-345-808h1920v3750h-1920z"/></clipPath><clipPath clipPathUnits="userSpaceOnUse" id="cp2"><path d="m0 0h31.06v31.06h-31.06z"/></clipPath></defs><style>.A{fill:#122844}</style><g clip-path="url(#cp1)"><g clip-path="url(#cp2)"><path fill-rule="evenodd" class="A" d="m31.1 27.4c0 2-1.7 3.7-3.7 3.7h-23.7c-2 0-3.7-1.7-3.7-3.7v-23.7c0-2 1.7-3.7 3.7-3.7h23.7c2 0 3.7 1.7 3.7 3.7zm-15.4 2v-3.3c0-2.5 2.1-4.6 4.6-4.6h9v-5.9h-9.9c-0.5 0-0.8-0.4-0.8-0.9c0-0.5 0.3-0.8 0.8-0.8h9.9v-10.1c0-1.1-0.9-2-1.9-2h-11.4v10.1c0 2.5-2.1 4.5-4.6 4.5h-9.7v11c0 1.1 0.9 2 2 2zm-14-25.6v10.9h9.7c1.5 0 2.8-1.3 2.8-2.8v-10.1h-10.5c-1.1 0-2 0.9-2 2zm27.6 19.4h-9c-1.6 0-2.9 1.3-2.9 2.9v3.3h9.9c1.1 0 2-0.9 2-2z"/></g></g></svg>